<svg xmlns="http://www.w3.org/2000/svg" viewBox="0 0 3121.99 1089.24">
  <path fill="blue"
    d="M200.21,1059.64c-28.44,48,11.39,108.13,65.5,98.72,411.05-71.51,885.68-219,1074.05-522.76,104.53-168.59,73.51-309.87,61.51-349.15-50.91-166.73-213.39-252.76-377.94-200.13C799.7,157.84,668.84,389,644.87,754.74q-.54,8.28-1,16.56C641.29,818,686.1,852.24,729,836.2l1.26-.48A64.82,64.82,0,0,0,772,778.49c14.12-256.14,87.08-501.84,289.64-566.62,109-34.85,191.61,30.87,216.94,113.81,16.13,52.82,12.16,143.45-47.37,239.45-94.88,153-344.15,353.14-986.91,463.82a64,64,0,0,0-44.11,30.69Z"
    transform="translate(-190.77 -70.92)" />
  <path fill="teal"
    d="M3198.3,1021.07c-23.37-15.49-33.89-44.67-28.64-73.23,7.88-42.9,32.25-219.22-124.73-338l-.09-.06C2913.11,522.46,2697.7,505,2468.58,562.91a1187.94,1187.94,0,0,0-180.21,61.2.92.92,0,0,1-1.26-.48c-3.25-7.33-28.18-60-94.25-110a1.11,1.11,0,0,1,.13-1.85c74.56-36,156.79-66,243.81-88C2704.64,356,2952.56,379.66,3117,488.65l.08.06c198.41,152,212.35,373.27,185.24,493.37-10.42,46.13-60.91,67.57-99,42.31ZM1627.54,481.23c-2.9,39.19,25.06,73.68,62.27,76,116.46,7.33,259.47,43.29,343,98.64,127.48,84.52,136.89,204.69,91.68,280.58h0c-55,92.4-114.89,86.79-138.86,70.9-61.56-40.82-25-117.08-12.35-139.49A343.84,343.84,0,0,1,2008,818.07c25.73-31,21.48-78.89-10.88-102.08q-2.25-1.62-4.57-3.21c-27.87-19.16-65.2-14.52-87.11,11.84a478.31,478.31,0,0,0-48.75,69.91c-71.76,126.9-48.42,264.24,56.76,334,91.53,60.69,232.87,40.38,325.92-115.83,50.36-84.54,60-182.43,27.14-275.6-28.26-80.09-85.64-151.93-161.59-202.28-139.55-92.52-314.36-114-407.32-118.57-36.21-1.77-67.24,26.9-70.06,65Z"
    transform="translate(-190.77 -70.92)" />
</svg>
