<svg xmlns="http://www.w3.org/2000/svg" viewBox="0 0 4392 2318">
  <path
    d="M1446,1941.77c30.64-1.34,53.71,27.76,45.13,57.21-22.31,76.66-101.28,196.35-267.4,214.82h-.07c-132.25,5.77-286.7-64.61-423.73-193.11a913.61,913.61,0,0,1-116.33-131.76.69.69,0,0,1,.51-1.08c55.12-5.8,86.73-27,91-30a.64.64,0,0,1,.9.15,840.37,840.37,0,0,0,87.21,95.23c117.23,109.92,250.45,172.78,356.4,168.17h.07c131-13.79,172.88-121.14,181.91-147.91,6-17.83,21.58-30.68,40.38-31.5ZM338.84,1715.24a45.73,45.73,0,0,0,20.74,60.19c56.52,28.82,167,75.74,279.21,70.83,61.09-2.67,118.05-23.68,160.38-59.17,49.24-41.29,74.82-99.56,72-164.09-5.21-119.22-82.46-178.34-156.08-175.12-84.61,3.7-142.32,73-140.35,168.58a309.7,309.7,0,0,0,6.54,55.76c4.56,22.21,25.19,37.42,47.82,36.06l3.74-.26c26.58-2.12,44.39-27.59,39.07-53.72a222,222,0,0,1-4.67-39.74c-.35-16.87,2.37-72.08,51.89-74.25,19.27-.84,56.53,16.21,59.61,86.73h0c2.53,57.92-41.44,122.3-144,126.79-67.16,2.93-163.38-25.12-234.72-60.31-22.8-11.24-50.39-1.29-61.19,21.72Zm3086.88,136.87c56.31-14.35,115.58-45.22,181.19-94.35,114.05-85.4,232.16-214.31,363.64-361.64,105.79-118.56,197.91-175.8,256.57-202.95,27.95-12.93,56.36-20.82,79.24-25.58a60.22,60.22,0,0,0,48.05-59h0a60.12,60.12,0,0,0-72.15-58.74c-28,5.73-61.45,15-95.11,29.76-46,20.22-92.73,47.8-139,82-56.66,41.85-112.9,93.9-167.15,154.7-127.11,142.43-240.88,266.74-346,345.49-135.27,101.29-202.81,85-241.84,63.92-22.68-12.24-32.88-25.37-25.69-63.16,8.35-44,38.29-101.28,67.25-156.71,28.78-55.08,58.53-112,73.08-166,9.07-33.59,11.6-63.23,7.75-90.63-4.86-34.6-19.81-64.47-44.43-88.78-33.39-33-79-49-135.46-47.61-41.64,1-89.45,11.39-146.17,31.71-97.19,34.81-203.89,93-298,144.4-12.82,7-25.4,13.86-37.67,20.51-26.47,14.34-52.9,28.84-78.46,42.86-119.29,65.43-231.95,127.24-322.78,159.13-43.39,15.24-79.15,22.64-106.23,21.91-28.72-.74-41.06-10.12-48.6-18.21-7-7.5-16-20.8-13.23-49.54,4.34-45.3,35.21-108,86.93-176.5,48.71-64.54,98.8-111.85,118.93-126.51a60,60,0,0,0-70.64-97c-32,23.32-90.76,80.58-144.07,151.22-29.13,38.59-53,76.37-71.1,112.3-22.56,44.91-35.85,87-39.5,125.06-5.38,56.16,10.15,105.54,44.91,142.82,33.53,36,78.36,54.91,133.26,56.33,42.33,1.12,91.09-8.27,149.1-28.64,100.13-35.17,217-99.28,340.73-167.15,25.43-14,51.72-28.37,77.91-42.56q18.57-10.07,38-20.68c90.29-49.27,192.63-105.11,281-136.77,78.66-28.18,135.83-32.44,156.85-11.69,5.21,5.16,17.43,17.22,5.14,62.77-11.14,41.27-37.8,92.3-63.59,141.66-33,63.17-67.12,128.49-78.78,189.88-7.47,39.27-5.13,74.74,6.93,105.42,14.14,36,40.94,64.85,79.65,85.74a246.33,246.33,0,0,0,118.56,30.14A287,287,0,0,0,3425.72,1852.11ZM178.89,383.68c-16.49,4.63-55.11,15.47-20.24,139.67,13.62,48.52,46.68,132.42,94.41,225.3,0,0-57.32,14-99.62,27.65C106.78,682.89,74.78,599.85,61,550.77c-51.65-184,20.58-245.92,90.26-265.48,148-41.56,405.63,72.23,787.5,347.88,272.8,196.91,510.07,407.52,512.43,409.63a51.32,51.32,0,0,1,4.57,72.09,50.48,50.48,0,0,1-71.61,4.31C1029.43,803.6,388.53,324.82,178.89,383.68Z" />
</svg>
